<?xml version="1.0" encoding="utf-8"?>

<!-- License Agreement at http://iconmonstr.com/license/ -->

<!DOCTYPE svg PUBLIC "-//W3C//DTD SVG 1.1//EN" "http://www.w3.org/Graphics/SVG/1.1/DTD/svg11.dtd">
<svg version="1.1" xmlns="http://www.w3.org/2000/svg" xmlns:xlink="http://www.w3.org/1999/xlink" x="0px" y="0px"
	 width="512px" height="512px" viewBox="0 0 512 512" enable-background="new 0 0 512 512" xml:space="preserve">
<path id="rewind-4-icon" d="M108.131,280.054c1.475,37.301,16.666,72.134,43.172,98.642C179.227,406.621,216.391,422,255.947,422
	c39.555,0,76.717-15.378,104.643-43.301c27.926-27.925,43.305-65.088,43.305-104.646c0-39.554-15.379-76.716-43.301-104.641
	c-19.209-19.209-42.795-32.469-68.52-38.881v39.877l-83.91-60.204L292.074,50v39.595c86.566,16.824,151.82,92.949,151.82,184.459
	C443.895,377.939,359.818,462,255.947,462C154.07,462,71.271,381.142,68.105,280.054H108.131z M208.164,170.409v-60.204V50
	l-83.912,60.205L208.164,170.409z M178.727,324.776c6.08,3.681,17.441,7.2,30.881,7.2c26.4,0,42.561-13.44,42.561-31.681
	c0-13.76-10.08-23.2-22.561-25.44v-0.32c12.801-4.319,19.041-13.12,19.041-24.16c0-14.24-12.32-25.921-34.4-25.921
	c-13.6,0-25.92,3.841-32.16,7.841l4.959,17.6c4.16-2.56,13.121-6.239,21.602-6.239c10.4,0,15.359,4.64,15.359,10.88
	c0,8.8-10.24,12-18.4,12h-9.6v17.44h9.92c10.721,0,20.961,4.641,20.961,15.04c0,7.681-6.4,13.761-19.041,13.761
	c-9.92,0-19.84-4-24.16-6.4L178.727,324.776z M306.246,224.454c-26.879,0-39.52,23.681-39.52,53.922
	c0.16,29.44,12,53.601,38.881,53.601c26.4,0,39.359-22.24,39.359-54.241C344.967,249.255,333.928,224.454,306.246,224.454z
	 M306.086,313.576c-9.279,0-15.039-11.36-15.039-35.2c0-24.321,6.08-35.521,14.881-35.521c9.76,0,14.719,12.16,14.719,35.201
	C320.646,301.736,315.527,313.576,306.086,313.576z"/>
</svg>
