<?xml version="1.0" encoding="utf-8"?>

<!-- License Agreement at http://iconmonstr.com/license/ -->

<!DOCTYPE svg PUBLIC "-//W3C//DTD SVG 1.1//EN" "http://www.w3.org/Graphics/SVG/1.1/DTD/svg11.dtd">
<svg version="1.1" xmlns="http://www.w3.org/2000/svg" xmlns:xlink="http://www.w3.org/1999/xlink" x="0px" y="0px"
	 width="512px" height="512px" viewBox="0 0 512 512" enable-background="new 0 0 512 512" xml:space="preserve">
<path id="fast-forward-7-icon" d="M168.671,336.743V175.258l116.803,80.743L168.671,336.743z M260.527,336.743V300.82
	c33.526-23.179,64.831-44.819,64.831-44.819s-31.305-21.642-64.831-44.818v-35.925l116.801,80.743L260.527,336.743z M90,256
	c0,91.755,74.258,166,166,166c91.755,0,166-74.259,166-166c0-91.755-74.258-166-166-166C164.245,90,90,164.259,90,256z M462,256
	c0,113.771-92.229,206-206,206S50,369.771,50,256S142.229,50,256,50S462,142.229,462,256z"/>
</svg>
